<svg xmlns="http://www.w3.org/2000/svg" viewBox="0 0 800 500" width="800" height="500">
  <defs>
    <linearGradient id="amberGrad" x1="0%" y1="0%" x2="0%" y2="100%">
      <stop offset="0%" stop-color="#E8A020"/>
      <stop offset="100%" stop-color="#C8860A"/>
    </linearGradient>
    <radialGradient id="centerGlow" cx="50%" cy="50%" r="50%">
      <stop offset="0%" stop-color="#E8A020" stop-opacity="0.18"/>
      <stop offset="100%" stop-color="#FDFAF5" stop-opacity="0"/>
    </radialGradient>
    <linearGradient id="messyGrad" x1="0%" y1="0%" x2="100%" y2="100%">
      <stop offset="0%" stop-color="#B0AA9F"/>
      <stop offset="100%" stop-color="#6B6560"/>
    </linearGradient>
    <linearGradient id="cleanGrad" x1="0%" y1="0%" x2="100%" y2="100%">
      <stop offset="0%" stop-color="#E8A020"/>
      <stop offset="100%" stop-color="#A84B28"/>
    </linearGradient>
    <marker id="arrowMuted" markerWidth="8" markerHeight="8" refX="6" refY="3" orient="auto">
      <path d="M0,0 L0,6 L8,3 Z" fill="#B0AA9F" opacity="0.7"/>
    </marker>
    <marker id="arrowAmber" markerWidth="8" markerHeight="8" refX="6" refY="3" orient="auto">
      <path d="M0,0 L0,6 L8,3 Z" fill="#C8860A"/>
    </marker>
  </defs>
  <rect width="800" height="500" fill="#FDFAF5"/>
  <rect x="0" y="0" width="240" height="500" fill="#F7F2EA" opacity="0.5"/>
  <rect x="560" y="0" width="240" height="500" fill="#F7F2EA" opacity="0.5"/>
  <ellipse cx="400" cy="250" rx="160" ry="160" fill="url(#centerGlow)"/>
  <!-- LEFT: scattered dashed lines -->
  <line x1="60" y1="130" x2="130" y2="170" stroke="#B0AA9F" stroke-width="1.5" stroke-dasharray="6 4" opacity="0.7"/>
  <line x1="150" y1="185" x2="195" y2="210" stroke="#B0AA9F" stroke-width="1.5" stroke-dasharray="4 6" opacity="0.5"/>
  <line x1="75" y1="270" x2="145" y2="240" stroke="#6B6560" stroke-width="1" stroke-dasharray="3 5" opacity="0.4"/>
  <polyline points="55,320 95,310 110,330 160,315" stroke="#B0AA9F" stroke-width="1.5" stroke-dasharray="5 4" fill="none" opacity="0.6"/>
  <line x1="140" y1="390" x2="195" y2="370" stroke="#6B6560" stroke-width="1" stroke-dasharray="4 6" opacity="0.45"/>
  <line x1="70" y1="160" x2="155" y2="340" stroke="#B0AA9F" stroke-width="1" stroke-dasharray="5 8" opacity="0.2"/>
  <!-- LEFT nodes -->
  <circle cx="55" cy="120" r="14" fill="url(#messyGrad)" opacity="0.6"/>
  <circle cx="55" cy="120" r="14" fill="none" stroke="#6B6560" stroke-width="1.5" opacity="0.5"/>
  <circle cx="148" cy="180" r="11" fill="#B0AA9F" opacity="0.7"/>
  <rect x="42" y="257" width="22" height="22" rx="3" fill="#B0AA9F" opacity="0.5" transform="rotate(12,53,268)"/>
  <circle cx="160" cy="318" r="9" fill="url(#messyGrad)" opacity="0.55"/>
  <circle cx="135" cy="395" r="13" fill="#B0AA9F" opacity="0.5"/>
  <circle cx="80" cy="228" r="6" fill="#6B6560" opacity="0.4"/>
  <rect x="170" y="380" width="16" height="16" rx="2" fill="#B0AA9F" opacity="0.4" transform="rotate(-8,178,388)"/>
  <rect x="48" y="148" width="28" height="6" rx="2" fill="#B0AA9F" opacity="0.35"/>
  <rect x="125" y="205" width="20" height="5" rx="2" fill="#6B6560" opacity="0.3"/>
  <text x="120" y="462" text-anchor="middle" font-family="Inter, sans-serif" font-size="11" fill="#6B6560" letter-spacing="1.5" font-weight="500" opacity="0.8">FRAGMENTED</text>
  <!-- CENTER: chef's pot -->
  <circle cx="400" cy="250" r="90" fill="#F7F2EA" stroke="#C8860A" stroke-width="2" opacity="0.95"/>
  <path d="M362,210 L438,210 L452,300 L348,300 Z" fill="url(#amberGrad)" opacity="0.92"/>
  <rect x="352" y="202" width="96" height="14" rx="7" fill="#C8860A"/>
  <rect x="376" y="298" width="48" height="10" rx="5" fill="#A84B28"/>
  <path d="M352,232 Q332,232 332,252 Q332,272 352,272" fill="none" stroke="#C8860A" stroke-width="4" stroke-linecap="round"/>
  <path d="M448,232 Q468,232 468,252 Q468,272 448,272" fill="none" stroke="#C8860A" stroke-width="4" stroke-linecap="round"/>
  <path d="M385,196 Q380,180 390,165 Q400,150 392,136" fill="none" stroke="#E8A020" stroke-width="2.5" stroke-linecap="round" opacity="0.6"/>
  <path d="M400,194 Q396,176 406,160 Q415,145 408,130" fill="none" stroke="#E8A020" stroke-width="2" stroke-linecap="round" opacity="0.45"/>
  <path d="M415,196 Q412,180 420,164 Q428,148 422,133" fill="none" stroke="#C8860A" stroke-width="2" stroke-linecap="round" opacity="0.4"/>
  <ellipse cx="400" cy="240" rx="28" ry="14" fill="#E8A020" opacity="0.25"/>
  <text x="400" y="258" text-anchor="middle" font-family="Inter, sans-serif" font-size="9" font-weight="700" fill="#FDFAF5" letter-spacing="2" opacity="0.9">TRANSFORM</text>
  <text x="400" y="462" text-anchor="middle" font-family="Inter, sans-serif" font-size="11" fill="#C8860A" letter-spacing="1.5" font-weight="600" opacity="0.95">SAUZI</text>
  <!-- FLOW ARROWS -->
  <path d="M205,250 Q270,250 310,250" fill="none" stroke="#B0AA9F" stroke-width="2" stroke-dasharray="6 4" marker-end="url(#arrowMuted)" opacity="0.7"/>
  <path d="M490,250 Q530,250 560,250" fill="none" stroke="#C8860A" stroke-width="2.5" marker-end="url(#arrowAmber)" opacity="0.9"/>
  <!-- RIGHT: clean nodes -->
  <line x1="605" y1="150" x2="605" y2="370" stroke="#E8A020" stroke-width="2.5" opacity="0.5"/>
  <line x1="605" y1="155" x2="680" y2="132" stroke="#C8860A" stroke-width="2" opacity="0.8"/>
  <line x1="605" y1="195" x2="695" y2="195" stroke="#C8860A" stroke-width="2" opacity="0.8"/>
  <line x1="605" y1="255" x2="695" y2="255" stroke="#C8860A" stroke-width="2" opacity="0.8"/>
  <line x1="605" y1="312" x2="680" y2="316" stroke="#C8860A" stroke-width="2" opacity="0.8"/>
  <line x1="605" y1="368" x2="680" y2="372" stroke="#A84B28" stroke-width="2" opacity="0.7"/>
  <circle cx="605" cy="155" r="13" fill="url(#cleanGrad)" opacity="0.9"/>
  <circle cx="605" cy="155" r="13" fill="none" stroke="#C8860A" stroke-width="2"/>
  <circle cx="680" cy="132" r="10" fill="#E8A020" opacity="0.85"/>
  <circle cx="605" cy="195" r="13" fill="url(#cleanGrad)" opacity="0.9"/>
  <circle cx="695" cy="195" r="10" fill="#E8A020" opacity="0.85"/>
  <circle cx="605" cy="255" r="13" fill="url(#cleanGrad)" opacity="0.9"/>
  <circle cx="695" cy="255" r="10" fill="#E8A020" opacity="0.85"/>
  <circle cx="605" cy="312" r="13" fill="url(#cleanGrad)" opacity="0.9"/>
  <circle cx="680" cy="316" r="10" fill="#E8A020" opacity="0.85"/>
  <circle cx="605" cy="368" r="11" fill="#A84B28" opacity="0.85"/>
  <circle cx="680" cy="372" r="8" fill="#A84B28" opacity="0.7"/>
  <rect x="714" y="127" width="40" height="7" rx="3" fill="#C8860A" opacity="0.5"/>
  <rect x="714" y="137" width="26" height="5" rx="2" fill="#E8A020" opacity="0.3"/>
  <rect x="714" y="190" width="44" height="7" rx="3" fill="#C8860A" opacity="0.5"/>
  <rect x="714" y="200" width="30" height="5" rx="2" fill="#E8A020" opacity="0.3"/>
  <rect x="714" y="250" width="38" height="7" rx="3" fill="#C8860A" opacity="0.5"/>
  <rect x="714" y="260" width="22" height="5" rx="2" fill="#E8A020" opacity="0.3"/>
  <rect x="697" y="311" width="40" height="7" rx="3" fill="#C8860A" opacity="0.5"/>
  <rect x="697" y="367" width="36" height="7" rx="3" fill="#A84B28" opacity="0.45"/>
  <text x="680" y="462" text-anchor="middle" font-family="Inter, sans-serif" font-size="11" fill="#C8860A" letter-spacing="1.5" font-weight="600" opacity="0.9">STRUCTURED</text>
  <text x="400" y="490" text-anchor="middle" font-family="Inter, sans-serif" font-size="10" fill="#B0AA9F" letter-spacing="1" opacity="0.7">FROM CHAOS TO CLARITY</text>
</svg>
